<?xml version="1.0" encoding="utf-8"?>
<!-- Generator: Adobe Illustrator 19.2.1, SVG Export Plug-In . SVG Version: 6.00 Build 0)  -->
<svg version="1.1" id="Layer_1" xmlns="http://www.w3.org/2000/svg" xmlns:xlink="http://www.w3.org/1999/xlink" x="0px" y="0px"
	 viewBox="0 0 792 612" style="enable-background:new 0 0 792 612;" xml:space="preserve">
<style type="text/css">
	.st0{fill:#007852;}
</style>
<g>
	<g>
		<path class="st0" d="M288,304.8c0,0,0,2.4,0,3.5c0,17.1,11.9,31.6,27.8,33.7v-37.2H288z M309.5,333.4l-0.5-0.2
			c-10.5-5.1-15.1-16.5-14.7-21.6l15.1,0V333.4z"/>
		<path class="st0" d="M288,270v27.9h27.9V270H288z M309.5,291.5h-15.1v-15.1h15.1V291.5z"/>
		<path class="st0" d="M322.8,304.8V342c15.9-2.1,27.8-16.5,27.8-33.7c0-1.1,0-3.5,0-3.5H322.8z M329.2,311.6l15.1,0
			c0.4,5.1-4.2,16.5-14.7,21.6l-0.5,0.2V311.6z"/>
		<path class="st0" d="M322.8,270v27.9h27.9V270H322.8z M329.2,276.4h15.1v15.1h-15.1V276.4z"/>
	</g>
	<g>
		<path d="M378.6,272.9c-2.5-2.9-6-2.9-8.9-2.9h-6.6v22.1h6.4c3.2,0,5.9,0,8.1-1.8c0.9-0.7,3.7-3.4,3.7-9
			C381.4,277.9,380.4,275,378.6,272.9z M377.4,281.3c0,2.9-0.9,5.1-2.6,6.4c-1.3,1-3.5,1.1-5.3,1.1c0,0-1.9,0-2.5,0v-15.6
			c0.6,0,3.1,0,3.1,0c2.4,0,4.1,0.3,5.4,1.7C377.2,276.9,377.4,280.1,377.4,281.3z"/>
		<path d="M400.2,270v13.5c0,1.5,0,5.6-5.3,5.6c-2,0-3.6-0.6-4.5-1.9c-0.4-0.6-0.9-1.5-0.9-3.6V270h-3.8v13.4c0,3.4,0.7,4.7,1.3,5.6
			c2.2,3.2,6.2,3.6,7.9,3.6c1.8,0,5-0.4,7.2-3.1c1.8-2.3,1.8-4.8,1.8-5.9V270H400.2z"/>
		<path d="M426.6,291.6c-0.8-2.3-1-4.1-1.3-6.5l0-0.1c-0.2-2.2-0.9-3.4-2.4-4.1c0.5-0.2,1.1-0.6,1.6-1.1c1-1,1.6-2.5,1.6-4.1
			c0-2-0.9-3.7-2.5-4.7c-1.7-1.1-4-1.1-5.1-1.1h-8v22.1h3.7c0,0,0-8.8,0-9.6c0.7,0,3.3,0,3.3,0c3.4,0,3.9,0.7,4.3,3.6
			c0,0,0.1,0.5,0.1,0.5c0.2,1.7,0.5,3.9,0.9,5.3l0.1,0.3h4L426.6,291.6z M414.1,273.3c0.7,0,4.3,0,4.3,0c1.9,0,3.8,0.4,3.8,3
			c0,1.5-0.9,2.2-1.2,2.4c-0.4,0.3-1.4,0.4-2.6,0.4c0,0-3.6,0-4.3,0V273.3z"/>
		<path d="M446.1,270c0,0,0,8.4,0,9.1h-9.3c0-0.8,0-9.1,0-9.1H433v22.1h3.8c0,0,0-8.8,0-9.6h9.3c0,0.8,0,9.6,0,9.6h3.8V270H446.1z"
			/>
		<path d="M467.2,270h-3.7l-9.3,22.1h3.9c0,0,2.1-5.1,2.3-5.5h9.3c0.2,0.5,2.3,5.5,2.3,5.5h4.1L467.2,270z M468.6,283.4h-6.8
			c0.4-0.9,2.9-7.3,3.5-8.9C465.8,276,468.2,282.5,468.6,283.4z"/>
		<path d="M498.2,270c0,0-5.2,14.7-5.9,16.7c-0.7-2-5.7-16.7-5.7-16.7h-5.9v22.1h3.7c0,0,0-13.4,0-17c1.2,3.5,6,17,6,17h3.4
			c0,0,5-13.8,6.3-17.2c0,3.6,0,17.2,0,17.2h3.7V270H498.2z"/>
		<path d="M366.1,341.9c-2.4,0-2.9-1.4-2.8-3.1h2c0,0.9,0,1.7,1.1,1.7c0.7,0,1-0.4,1-1.1c0-1.7-4-1.8-4-4.6c0-1.5,0.7-2.7,3.1-2.7
			c1.9,0,2.9,0.9,2.7,2.8h-1.9c0-0.7-0.1-1.4-0.9-1.4c-0.6,0-1,0.4-1,1c0,1.8,4,1.6,4,4.6C369.3,341.6,367.6,341.9,366.1,341.9z"/>
		<path d="M379.7,332.3v6.7c0,1.4-0.8,2.9-3.2,2.9c-2.2,0-3.2-1.1-3.2-2.9v-6.7h2v6.6c0,1.2,0.5,1.6,1.2,1.6c0.9,0,1.3-0.6,1.3-1.6
			v-6.6H379.7z"/>
		<path d="M383.7,337.1c0-2.5,0-4.9,3.3-4.9c2,0,2.8,1.1,2.7,3.1h-1.9c0-1.3-0.2-1.7-0.8-1.7c-1.1,0-1.3,1-1.3,3.5
			c0,2.4,0.1,3.5,1.3,3.5c0.9,0,0.9-1.2,0.9-1.9h1.9c0,2.5-1,3.3-2.8,3.3C383.7,341.9,383.7,339.5,383.7,337.1z"/>
		<path d="M393.6,337.1c0-2.5,0-4.9,3.2-4.9c2,0,2.8,1.1,2.7,3.1h-1.9c0-1.3-0.2-1.7-0.8-1.7c-1.1,0-1.3,1-1.3,3.5
			c0,2.4,0.1,3.5,1.3,3.5c0.9,0,0.9-1.2,0.9-1.9h2c0,2.5-1,3.3-2.9,3.3C393.6,341.9,393.6,339.5,393.6,337.1z"/>
		<path d="M403.5,341.8v-9.4h5.1v1.5h-3.2v2.3h2.9v1.5h-2.9v2.8h3.3v1.4H403.5z"/>
		<path d="M415.1,341.9c-2.4,0-2.9-1.4-2.8-3.1h2c0,0.9,0,1.7,1.1,1.7c0.7,0,1-0.4,1-1.1c0-1.7-4-1.8-4-4.6c0-1.5,0.7-2.7,3.1-2.7
			c1.9,0,2.9,0.9,2.7,2.8h-1.9c0-0.7-0.1-1.4-0.9-1.4c-0.6,0-1,0.4-1,1c0,1.8,4,1.6,4,4.6C418.4,341.6,416.6,341.9,415.1,341.9z"/>
		<path d="M424.9,341.9c-2.4,0-2.9-1.4-2.8-3.1h2c0,0.9,0,1.7,1.1,1.7c0.7,0,1-0.4,1-1.1c0-1.7-4-1.8-4-4.6c0-1.5,0.7-2.7,3.1-2.7
			c1.9,0,2.9,0.9,2.7,2.8h-1.9c0-0.7-0.1-1.4-0.9-1.4c-0.6,0-1,0.4-1,1c0,1.8,4,1.6,4,4.6C428.2,341.6,426.4,341.9,424.9,341.9z"/>
		<path d="M437.6,341.8v-9.4h3.2l1.5,6.4h0l1.6-6.4h3.1v9.4H445v-7.3h0l-1.8,7.3h-1.9l-1.7-7.3h0v7.3H437.6z"/>
		<path d="M450.3,341.8l2.6-9.4h2.6l2.6,9.4H456l-0.5-2.1h-2.7l-0.5,2.1H450.3z M454.1,334.2L454.1,334.2l-0.9,4.1h1.9L454.1,334.2z
			"/>
		<path d="M466.4,332.3v1.6h-2.2v7.9h-2v-7.9h-2.2v-1.6H466.4z"/>
		<path d="M475.5,332.3v1.6h-2.2v7.9h-2v-7.9h-2.2v-1.6H475.5z"/>
		<path d="M479,341.8v-9.4h5.2v1.5h-3.2v2.3h2.9v1.5h-2.9v2.8h3.3v1.4H479z"/>
		<path d="M490,341.8h-2v-9.4h3.6c1.3,0,2.2,0.9,2.2,2.5c0,1.2-0.5,2.1-1.7,2.3v0c0.4,0.1,1.7,0.2,1.7,1.9c0,0.6,0,2.4,0.2,2.8h-1.9
			c-0.3-0.6-0.2-1.2-0.2-1.8c0-1.1,0.1-2.1-1.4-2.1H490V341.8z M490,336.4h0.9c0.8,0,1-0.8,1-1.4c0-0.9-0.4-1.2-1-1.2H490V336.4z"/>
		<path d="M500.4,341.9c-2.4,0-2.9-1.4-2.8-3.1h2c0,0.9,0,1.7,1.1,1.7c0.7,0,1-0.4,1-1.1c0-1.7-4-1.8-4-4.6c0-1.5,0.7-2.7,3.1-2.7
			c1.9,0,2.9,0.9,2.7,2.8h-1.9c0-0.7-0.1-1.4-0.9-1.4c-0.6,0-1,0.4-1,1c0,1.8,4,1.6,4,4.6C503.7,341.6,501.9,341.9,500.4,341.9z"/>
		<rect x="363.1" y="325.3" width="140.6" height="1"/>
		<path class="st0" d="M376.8,312.5c-0.1,0.4-0.2,1.3-0.9,2c-0.7,0.8-1.8,1.1-3.1,1.1c-3.7,0-5.6-2.7-5.6-7.9c0-3.1,0.7-8.4,5.6-8.4
			c3.7,0,4.1,2.5,4.2,3.3l0.1,0.4l0.4,0h3.6l0-0.4c-0.4-4.7-4.4-6.4-8-6.4c-7.2,0-9.7,6-9.7,11.6c0,2.6,0.7,11.1,9.3,11.1
			c3.6,0,7.9-1.6,8.4-6.3l0-0.5h-4.1L376.8,312.5z"/>
		<path class="st0" d="M394.2,295.9c-2.1,0-5.1,0.5-7.4,3c-1.9,2-2.9,5-2.9,8.8c0,7.4,3.6,11.4,10,11.4c6.5,0,10.3-4.3,10.3-11.8
			C404.2,300.1,400.6,295.9,394.2,295.9z M398.5,314c-1,1.2-2.5,1.8-4.4,1.8c-2,0-3.4-0.6-4.4-1.8c-1.2-1.5-1.8-3.6-1.8-6.5
			c0-5.5,2.1-8.3,6.4-8.3c4.1,0,6,2.6,6,8.1C400.3,309,400,312,398.5,314z"/>
		<path class="st0" d="M411.9,315.1c0-0.8,0-18.7,0-18.7h-3.7v22.1h13.6v-3.4C421.8,315.1,412.6,315.1,411.9,315.1z"/>
		<path class="st0" d="M430.1,315.1c0-0.8,0-18.7,0-18.7h-3.7v22.1H440v-3.4C440,315.1,430.8,315.1,430.1,315.1z"/>
		<path class="st0" d="M449,315.2v-6.2c0.8,0,9.9,0,9.9,0v-3.3c0,0-9.1,0-9.9,0v-5.8c0.8,0,10.4,0,10.4,0v-3.3h-14.2v22.1h14.4v-3.4
			C459.7,315.2,449.8,315.2,449,315.2z"/>
		<path class="st0" d="M474.3,306.5v3.3c0,0,4.2,0,4.9,0v5.6c-0.7,0.2-2.1,0.6-4.2,0.6c-2.4,0-4.2-0.7-5.3-1.9
			c-1.4-1.6-1.8-4.4-1.8-6.4c0-1.9,0.4-4.6,2.2-6.6c1-1.1,2.5-1.7,4.5-1.7c2.5,0,4.1,1.1,4.4,3l0.1,0.3h4l0-0.4
			c-0.1-0.8-0.1-2.2-1.5-3.6c-2.1-2.2-4.8-2.4-6.6-2.4c-2.5,0-4.6,0.5-6.2,1.6c-4.4,3-4.7,8.5-4.7,10.2c0,3.4,1.1,6.4,3.1,8.4
			c1.8,1.9,4.4,2.8,8,2.8c3.8,0,6.6-1,7.7-1.3l0.3-0.1v-11.2H474.3z"/>
		<path class="st0" d="M493.4,315.2v-6.2c0.8,0,9.9,0,9.9,0v-3.3c0,0-9.1,0-9.9,0v-5.8c0.8,0,10.4,0,10.4,0v-3.3h-14.2v22.1H504
			v-3.4C504,315.2,494.1,315.2,493.4,315.2z"/>
	</g>
</g>
</svg>
