<?xml version="1.0" encoding="utf-8"?>
<!-- Generator: Adobe Illustrator 24.0.2, SVG Export Plug-In . SVG Version: 6.00 Build 0)  -->
<svg version="1.1" id="Layer_1" xmlns="http://www.w3.org/2000/svg" xmlns:xlink="http://www.w3.org/1999/xlink" x="0px" y="0px"
	 viewBox="0 0 501.95 168.47" style="enable-background:new 0 0 501.95 168.47;" xml:space="preserve">
<style type="text/css">
	.st0{fill:#008265;}
</style>
<g>
	<path d="M209.95,7.32c-5.77-6.79-14.04-6.79-20.69-6.79h-15.29v51.44h14.88c7.37,0,13.72,0,18.86-4.26c2-1.6,8.58-7.88,8.58-21.05
		C216.29,18.86,214.09,12.17,209.95,7.32z M207.03,26.94c0,6.86-2.06,11.89-6.13,14.94c-3.14,2.35-8.04,2.55-12.39,2.55
		c0,0-4.34,0-5.75,0V8.15c1.5,0,7.26,0,7.26,0c5.6,0,9.43,0.65,12.46,4C206.58,16.68,207.03,24,207.03,26.94z"/>
	<path d="M260.16,0.53v31.35c0,3.58,0,13.1-12.42,13.1c-4.76,0-8.31-1.51-10.54-4.48c-0.98-1.38-2.01-3.48-2.01-8.34V0.53h-8.78
		v31.14c0,7.91,1.58,10.87,3.05,13.03c5.23,7.49,14.52,8.3,18.27,8.3c4.1,0,11.73-0.94,16.74-7.22c4.26-5.29,4.26-11.23,4.26-13.77
		V0.53H260.16z"/>
	<path d="M321.55,50.68c-1.88-5.31-2.35-9.44-3.01-15.15l-0.02-0.2c-0.57-5.11-2.17-7.83-5.67-9.43c1.21-0.55,2.44-1.31,3.67-2.53
		c2.44-2.44,3.78-5.8,3.78-9.46c0-4.55-2.16-8.53-5.93-10.9c-3.87-2.48-9.29-2.48-11.89-2.48H283.8v51.44h8.71c0,0,0-20.59,0-22.35
		c1.52,0,7.67,0,7.67,0c7.87,0,9.12,1.69,9.89,8.41c0,0.01,0.13,1.05,0.13,1.05c0.48,3.86,1.14,9.15,2.18,12.23l0.22,0.66h9.4
		L321.55,50.68z M292.37,8.21c1.6,0,9.89,0,9.89,0c4.4,0,8.9,0.84,8.9,7.06c0,3.58-2.01,5.12-2.87,5.61
		c-1.04,0.62-3.24,0.97-6.03,0.97c0,0-8.29,0-9.89,0V8.21z"/>
	<path d="M366.88,0.53c0,0,0,19.5,0,21.26h-21.59c0-1.75,0-21.26,0-21.26h-8.78v51.44h8.78c0,0,0-20.59,0-22.35h21.59
		c0,1.76,0,22.35,0,22.35h8.79V0.53H366.88z"/>
	<path d="M416.11,0.53h-8.63l-21.66,51.44h9.15c0,0,4.91-11.81,5.36-12.89h21.68c0.45,1.08,5.37,12.89,5.37,12.89h9.53L416.11,0.53z
		 M419.21,31.6h-15.92c0.84-2.12,6.75-17.07,8.16-20.64C412.8,14.55,418.42,29.5,419.21,31.6z"/>
	<path d="M488.2,0.53c0,0-12.04,34.26-13.65,38.84c-1.57-4.59-13.33-38.84-13.33-38.84h-13.79v51.44h8.59c0,0,0-31.08,0-39.65
		c2.9,8.21,14,39.65,14,39.65h7.88c0,0,11.68-32.06,14.6-40.08c0,8.4,0,40.08,0,40.08h8.66V0.53H488.2z"/>
	<path d="M180.64,167.94c-5.69,0-6.75-3.35-6.5-7.15h4.59c0,2.09,0.09,3.86,2.61,3.86c1.55,0,2.32-1,2.32-2.49
		c0-3.96-9.24-4.2-9.24-10.74c0-3.44,1.64-6.17,7.24-6.17c4.47,0,6.69,2,6.39,6.59h-4.47c0-1.64-0.28-3.31-2.14-3.31
		c-1.49,0-2.37,0.83-2.37,2.33c0,4.18,9.25,3.81,9.25,10.71C188.31,167.26,184.14,167.94,180.64,167.94z"/>
	<path d="M212.36,145.61v15.58c0,3.28-1.86,6.75-7.45,6.75c-5.05,0-7.48-2.61-7.48-6.75v-15.58h4.6v15.26
		c0,2.71,1.14,3.77,2.82,3.77c2.01,0,2.92-1.33,2.92-3.77v-15.26H212.36z"/>
	<path d="M221.81,156.59c0-5.81,0-11.34,7.58-11.34c4.68,0,6.57,2.57,6.39,7.29h-4.5c0-2.91-0.52-4.01-1.88-4.01
		c-2.59,0-2.92,2.43-2.92,8.06s0.33,8.05,2.92,8.05c2.13,0,2.04-2.73,2.09-4.46h4.53c0,5.86-2.35,7.76-6.63,7.76
		C221.81,167.94,221.81,162.34,221.81,156.59z"/>
	<path d="M244.66,156.59c0-5.81,0-11.34,7.56-11.34c4.68,0,6.58,2.57,6.4,7.29h-4.51c0-2.91-0.5-4.01-1.89-4.01
		c-2.58,0-2.92,2.43-2.92,8.06s0.34,8.05,2.92,8.05c2.13,0,2.04-2.73,2.1-4.46h4.54c0,5.86-2.34,7.76-6.64,7.76
		C244.66,167.94,244.66,162.34,244.66,156.59z"/>
	<path d="M267.7,167.57v-21.96h11.98v3.38h-7.4v5.41h6.81v3.38h-6.81v6.42h7.64v3.37H267.7z"/>
	<path d="M294.8,167.94c-5.69,0-6.76-3.35-6.51-7.15h4.6c0,2.09,0.09,3.86,2.61,3.86c1.53,0,2.31-1,2.31-2.49
		c0-3.96-9.24-4.2-9.24-10.74c0-3.44,1.64-6.17,7.23-6.17c4.47,0,6.68,2,6.39,6.59h-4.47c0-1.64-0.27-3.31-2.12-3.31
		c-1.5,0-2.37,0.83-2.37,2.33c0,4.18,9.25,3.81,9.25,10.71C302.47,167.26,298.28,167.94,294.8,167.94z"/>
	<path d="M317.64,167.94c-5.69,0-6.75-3.35-6.52-7.15h4.6c0,2.09,0.08,3.86,2.61,3.86c1.56,0,2.32-1,2.32-2.49
		c0-3.96-9.24-4.2-9.24-10.74c0-3.44,1.63-6.17,7.24-6.17c4.46,0,6.69,2,6.38,6.59h-4.48c0-1.64-0.27-3.31-2.13-3.31
		c-1.49,0-2.37,0.83-2.37,2.33c0,4.18,9.25,3.81,9.25,10.71C325.3,167.26,321.14,167.94,317.64,167.94z"/>
	<path d="M347.09,167.57v-21.96h7.4l3.45,14.94h0.05l3.64-14.94h7.15v21.96h-4.47v-16.95h-0.05l-4.23,16.95h-4.38l-4-16.95h-0.06
		v16.95H347.09z"/>
	<path d="M376.78,167.57l6.07-21.96h6.05l5.96,21.96h-4.84l-1.21-4.87h-6.27l-1.24,4.87H376.78z M385.63,149.84h-0.06l-2.11,9.49
		h4.38L385.63,149.84z"/>
	<path d="M414.21,145.61v3.66h-5.11v18.3h-4.6v-18.3h-5.1v-3.66H414.21z"/>
	<path d="M435.34,145.61v3.66h-5.1v18.3h-4.61v-18.3h-5.1v-3.66H435.34z"/>
	<path d="M443.4,167.57v-21.96h11.99v3.38h-7.39v5.41h6.82v3.38h-6.82v6.42h7.63v3.37H443.4z"/>
	<path d="M469.03,167.57h-4.59v-21.96h8.49c3.13,0,5.13,2,5.13,5.74c0,2.79-1.08,4.91-4.06,5.38v0.06c1,0.14,3.98,0.37,3.98,4.32
		c0,1.41,0.08,5.54,0.52,6.45H474c-0.62-1.34-0.49-2.83-0.49-4.25c0-2.62,0.25-4.84-3.28-4.84h-1.19V167.57z M469.03,155.1h2.05
		c1.82,0,2.34-1.82,2.34-3.22c0-2.1-0.88-2.89-2.34-2.89h-2.05V155.1z"/>
	<path d="M493.33,167.94c-5.69,0-6.74-3.35-6.5-7.15h4.58c0,2.09,0.08,3.86,2.62,3.86c1.56,0,2.31-1,2.31-2.49
		c0-3.96-9.25-4.2-9.25-10.74c0-3.44,1.66-6.17,7.25-6.17c4.46,0,6.69,2,6.38,6.59h-4.46c0-1.64-0.26-3.31-2.14-3.31
		c-1.48,0-2.36,0.83-2.36,2.33c0,4.18,9.25,3.81,9.25,10.71C501,167.26,496.82,167.94,493.33,167.94z"/>
	<rect x="173.78" y="129.32" width="327.28" height="2.29"/>
	<g>
		<path class="st0" d="M0.65,0.56v67.36h64.17V0.56H0.65z M47.92,50.18H17.55V18.31h30.37V50.18z"/>
	</g>
	<g>
		<path class="st0" d="M79.28,0.56v67.36h64.17V0.56H79.28z M126.55,50.18H96.18V18.31h30.37V50.18z"/>
	</g>
	<g>
		<path class="st0" d="M0.75,83.36c-0.3,2.81-0.46,5.67-0.46,8.56c0,39.36,28,71.78,64.05,76.16V83.36H0.75z M48.41,145.08
			c-21.79-10.52-30.79-34.62-30.03-44.55h30.03V145.08z"/>
	</g>
	<g>
		<path class="st0" d="M143.25,83.36H79.66v84.72c36.05-4.38,64.05-36.8,64.05-76.16C143.72,89.03,143.55,86.18,143.25,83.36z
			 M95.58,145.08v-44.55h30.03C126.38,110.46,117.37,134.56,95.58,145.08z"/>
	</g>
	<path class="st0" d="M205.74,99.46c-0.17,0.96-0.52,2.96-2.16,4.72c-1.72,1.78-4.12,2.65-7.32,2.65c-8.64,0-13.02-6.2-13.02-18.44
		c0-7.28,1.7-19.48,13.09-19.48c8.52,0,9.43,5.75,9.73,7.65l0.15,0.92l0.82,0h8.38l-0.08-1.04c-0.87-11.02-10.25-14.94-18.73-14.94
		c-16.69,0-22.63,13.93-22.63,26.96c0,6.08,1.57,25.92,21.74,25.92c8.27,0,18.33-3.84,19.48-14.64l0.11-1.06h-9.43L205.74,99.46z"/>
	<path class="st0" d="M246.19,60.87c-4.93,0-11.91,1.21-17.23,6.96c-4.41,4.74-6.64,11.61-6.64,20.41
		c0,17.11,8.28,26.54,23.32,26.54c15.17,0,23.87-9.97,23.87-27.36C269.51,70.54,261.01,60.87,246.19,60.87z M256.07,102.86
		c-2.33,2.76-5.77,4.17-10.22,4.17c-4.56,0-8-1.4-10.23-4.16c-2.77-3.43-4.17-8.49-4.17-15.04c0-12.79,4.98-19.28,14.81-19.28
		c9.46,0,14.05,6.15,14.05,18.79C260.3,91.2,259.75,98.35,256.07,102.86z"/>
	<path class="st0" d="M287.22,105.59c0-1.84,0-43.42,0-43.42h-8.71v51.45h31.76v-8.03C310.27,105.59,288.99,105.59,287.22,105.59z"
		/>
	<path class="st0" d="M329.65,105.59c0-1.84,0-43.42,0-43.42h-8.71v51.45h31.76v-8.03C352.7,105.59,331.41,105.59,329.65,105.59z"/>
	<path class="st0" d="M373.73,105.66V91.12c1.77,0,23.05,0,23.05,0v-7.68c0,0-21.28,0-23.05,0V69.92c1.77,0,24.21,0,24.21,0v-7.75
		h-33v51.45h33.55v-7.97C398.48,105.66,375.51,105.66,373.73,105.66z"/>
	<path class="st0" d="M432.51,85.36v7.62c0,0,9.7,0,11.31,0v13c-1.74,0.51-4.98,1.33-9.8,1.33c-5.64,0-9.83-1.53-12.44-4.54
		c-3.16-3.76-4.29-10.18-4.29-14.93c0-4.42,0.87-10.65,5.04-15.28c2.26-2.57,5.78-3.86,10.46-3.86c5.86,0,9.49,2.47,10.23,6.94
		l0.13,0.81h9.31l-0.07-1.03c-0.13-1.92-0.35-5.13-3.55-8.49c-4.93-5.01-11.1-5.58-15.3-5.58c-5.83,0-10.79,1.27-14.33,3.66
		c-10.24,6.88-11.04,19.89-11.04,23.71c0,7.9,2.56,14.83,7.21,19.54c4.24,4.34,10.34,6.45,18.64,6.45c8.8,0,15.43-2.23,17.93-3.07
		l0.66-0.22V85.36H432.51z"/>
	<path class="st0" d="M476.9,105.66V91.12c1.77,0,23.04,0,23.04,0v-7.68c0,0-21.28,0-23.04,0V69.92c1.77,0,24.21,0,24.21,0v-7.75
		h-32.99v51.45h33.55v-7.97C501.66,105.66,478.68,105.66,476.9,105.66z"/>
</g>
</svg>
